<?xml version="1.0" encoding="UTF-8" standalone="no"?>
<!-- Created with Inkscape (http://www.inkscape.org/) -->
<svg
   width="20mm"
   height="12mm"
   viewBox="0 0 20 12"
   version="1.1"
   id="svg1"
   inkscapeVersion="1.3.2 (091e20e, 2023-11-25, custom)"
   sodipodiDocname="bicon.svg"
   xmlnsInkscape="http://www.inkscape.org/namespaces/inkscape"
   xmlnsSodipodi="http://sodipodi.sourceforge.net/DTD/sodipodi-0.dtd"
   xmlnsXlink="http://www.w3.org/1999/xlink"
   xmlns="http://www.w3.org/2000/svg"
   xmlnsSvg="http://www.w3.org/2000/svg">
  <sodipodiNamedview
     id="namedview1"
     pagecolor="#ffffff"
     bordercolor="#111111"
     borderopacity="1"
     inkscapeShowpageshadow="0"
     inkscapePageopacity="0"
     inkscapePagecheckerboard="1"
     inkscapeDeskcolor="#d1d1d1"
     inkscapeDocument-units="mm"
     inkscapeZoom="0.63446243"
     inkscapeCx="395.6105"
     inkscapeCy="158.40181"
     inkscapeWindow-width="1920"
     inkscapeWindow-height="991"
     inkscapeWindow-x="-9"
     inkscapeWindow-y="-9"
     inkscapeWindow-maximized="1"
     inkscapeCurrent-layer="layer1" />
  <defs
     id="defs1">
    <inkscapePath-effect
       effect="bspline"
       id="path-effect1"
       is_visible="true"
       lpeversion="1.3"
       weight="33.333333"
       steps="2"
       helper_size="0"
       apply_no_weight="true"
       apply_with_weight="true"
       only_selected="false"
       uniform="false" />
    <symbol
       id="symbol81"
       viewBox="0 0 576.44501 577.45154">
      <title
         id="title78">Public building</title>
      <path
         d="M 64.571,0.06355556 C 23.236,0.06355556 0,21.434556 0,65.099556 V 515.22256 c 0,40.844 20.895,62.229 62.192,62.229 h 452.024 c 41.307,0 62.229,-20.315 62.229,-62.229 V 65.099556 c 0,-42.601 -20.922,-65.03600044 -63.521,-65.03600044 -0.004,0 -448.495,-0.143 -448.353,0 z"
         id="path79" />
      <path
         opacity="0.2"
         d="M 285.24006,42.297151 33.18062,234.20458 H 83.592176 V 542.06557 H 234.82819 339.10898 486.88797 V 234.20458 h 50.4119 L 285.24007,42.297151 Z"
         fill-rule="evenodd"
         fill="#ffffff"
         id="path80" />
      <path
         fill="#ffffff"
         d="m 285.23936,22.297509 a 10.001,10.001 0 0 0 -6.02344,2.140625 l -0.0332,-0.09766 L 27.12217,216.24868 a 10.001,10.001 0 0 0 6.058594,17.95508 h 40.412109 v 307.86133 a 10.001,10.001 0 0 0 10,10 H 234.82725 339.1085 486.8878 a 10.001,10.001 0 0 0 10,-10 V 234.20376 h 40.41211 a 10.001,10.001 0 0 0 6.05859,-17.95508 L 291.29795,24.340484 l -0.004,0.01367 a 10.001,10.001 0 0 0 -6.05469,-2.056641 z m 0.002,22.568359 222.41407,169.337892 h -20.76758 a 10.001,10.001 0 0 0 -10,10 V 532.06509 H 339.10855 234.8273 93.59292 V 224.20376 a 10.001,10.001 0 0 0 -10,-10 H 62.823389 L 285.24131,44.865868 Z m -102.127,116.929692 c -5.1753,1.9e-4 -9.68406,1.87465 -13.51758,5.61133 -3.83318,3.73703 -5.74787,8.2782 -5.74805,13.64062 1.8e-4,5.36861 1.91487,9.93323 5.74805,13.66993 3.83352,3.737 8.34228,5.59585 13.51758,5.5957 0.19082,0 0.37764,-0.0109 0.56641,-0.0156 0.1909,0.005 0.38706,0.0156 0.58007,0.0156 5.17529,1.5e-4 9.66844,-1.85869 13.50196,-5.5957 3.83318,-3.73671 5.74982,-8.30132 5.75,-13.66993 -1.8e-4,-5.36242 -1.91682,-9.90359 -5.75,-13.64062 -3.83352,-3.73668 -8.32667,-5.61114 -13.50196,-5.61133 -0.19296,0 -0.38923,0.0107 -0.58007,0.0156 -0.18871,-0.005 -0.37565,-0.0156 -0.56641,-0.0156 z m 100,0 c -5.1753,1.9e-4 -9.68406,1.87465 -13.51758,5.61133 -3.83318,3.73703 -5.74787,8.2782 -5.74805,13.64062 1.8e-4,5.36861 1.91487,9.93323 5.74805,13.66993 3.83352,3.737 8.34228,5.59585 13.51758,5.5957 0.19082,0 0.37764,-0.0109 0.56641,-0.0156 0.1909,0.005 0.38706,0.0156 0.58007,0.0156 5.17529,1.5e-4 9.66844,-1.85869 13.50196,-5.5957 3.83318,-3.73671 5.74982,-8.30132 5.75,-13.66993 -1.8e-4,-5.36242 -1.91682,-9.90359 -5.75,-13.64062 -3.83352,-3.73668 -8.32667,-5.61114 -13.50196,-5.61133 -0.19296,0 -0.38923,0.0107 -0.58007,0.0156 -0.18871,-0.005 -0.37565,-0.0156 -0.56641,-0.0156 z m 100,0 c -5.1753,1.9e-4 -9.68406,1.87465 -13.51758,5.61133 -3.83318,3.73703 -5.74787,8.2782 -5.74805,13.64062 1.8e-4,5.36861 1.91487,9.93323 5.74805,13.66993 3.83352,3.737 8.34228,5.59585 13.51758,5.5957 0.19082,0 0.37764,-0.0109 0.56641,-0.0156 0.1909,0.005 0.38706,0.0156 0.58007,0.0156 5.17529,1.5e-4 9.66844,-1.85869 13.50196,-5.5957 3.83318,-3.73671 5.74982,-8.30132 5.75,-13.66993 -1.8e-4,-5.36242 -1.91682,-9.90359 -5.75,-13.64062 -3.83352,-3.73668 -8.32667,-5.61114 -13.50196,-5.61133 -0.19296,0 -0.38923,0.0107 -0.58007,0.0156 -0.18871,-0.005 -0.37565,-0.0156 -0.56641,-0.0156 z M 168.4503,204.62564 c -1.16373,3e-5 -2.21136,0.13241 -3.15625,0.38476 a 16.417375,16.417375 0 0 0 -1.89453,-0.0742 16.417375,16.417375 0 0 0 -16.01954,16.79297 l 0.3418,38.28516 a 16.417375,16.417375 0 0 0 11.53906,15.74805 v 5.02734 1.45313 l 24.41993,-0.71875 24.43554,0.71875 v -1.45313 -5.74219 a 16.417375,16.417375 0 0 0 9.625,-15.32617 l -0.34375,-38.28711 a 16.417375,16.417375 0 0 0 -15.45703,-16.46289 c -0.90763,-0.22749 -1.91072,-0.34567 -3.01562,-0.3457 H 168.4503 Z m 100,0 c -1.16373,3e-5 -2.21136,0.13241 -3.15625,0.38476 a 16.417375,16.417375 0 0 0 -1.89453,-0.0742 16.417375,16.417375 0 0 0 -16.01954,16.79297 l 0.3418,38.28516 a 16.417375,16.417375 0 0 0 11.53906,15.74805 v 5.02734 1.45313 l 24.41993,-0.71875 24.43554,0.71875 v -1.45313 -5.74219 a 16.417375,16.417375 0 0 0 9.625,-15.32617 l -0.34375,-38.28711 a 16.417375,16.417375 0 0 0 -15.45703,-16.46289 c -0.90763,-0.22749 -1.91072,-0.34567 -3.01562,-0.3457 H 268.4503 Z m 100,0 c -1.16373,3e-5 -2.21136,0.13241 -3.15625,0.38476 a 16.417375,16.417375 0 0 0 -1.89453,-0.0742 16.417375,16.417375 0 0 0 -16.01954,16.79297 l 0.3418,38.28516 a 16.417375,16.417375 0 0 0 11.53906,15.74805 v 5.02734 1.45313 l 24.41993,-0.71875 24.43554,0.71875 v -1.45313 -5.74219 a 16.417375,16.417375 0 0 0 9.625,-15.32617 l -0.34375,-38.28711 a 16.417375,16.417375 0 0 0 -15.45703,-16.46289 c -0.90763,-0.22749 -1.91072,-0.34567 -3.01562,-0.3457 H 368.4503 Z M 201.27842,302.1315 c -9.2713,3.4e-4 -17.34922,3.35866 -24.2168,10.05273 -6.86695,6.69474 -10.29849,14.82902 -10.29882,24.43555 3.3e-4,9.61761 3.43187,17.79415 10.29882,24.48828 6.86759,6.69468 14.9455,10.02566 24.2168,10.02539 0.34185,1e-5 0.6755,-0.017 1.01367,-0.0254 0.342,0.009 0.69525,0.0255 1.04102,0.0254 9.2713,2.7e-4 17.31992,-3.33071 24.1875,-10.02539 6.86696,-6.69413 10.30046,-14.87067 10.30078,-24.48828 -3.1e-4,-9.60653 -3.43382,-17.74081 -10.30078,-24.43555 -6.86758,-6.69407 -14.9162,-10.05239 -24.1875,-10.05273 -0.34568,10e-6 -0.69912,0.0186 -1.04102,0.0273 -0.33806,-0.009 -0.67192,-0.0273 -1.01367,-0.0273 z m 166.55078,0 c -9.27131,3.4e-4 -17.34726,3.35866 -24.21484,10.05273 -6.86695,6.69474 -10.30045,14.82902 -10.30078,24.43555 3.2e-4,9.61761 3.43383,17.79415 10.30078,24.48828 6.86758,6.69468 14.94353,10.02566 24.21484,10.02539 0.34185,1e-5 0.67549,-0.017 1.01368,-0.0254 0.34199,0.009 0.69524,0.0255 1.04101,0.0254 9.2713,2.7e-4 17.31992,-3.33071 24.1875,-10.02539 6.86695,-6.69413 10.30046,-14.87067 10.30078,-24.48828 -3.1e-4,-9.60653 -3.43383,-17.74081 -10.30078,-24.43555 -6.86758,-6.69407 -14.9162,-10.05239 -24.1875,-10.05273 -0.34568,10e-6 -0.69912,0.0186 -1.04101,0.0273 -0.33806,-0.009 -0.67193,-0.0273 -1.01368,-0.0273 z m -192.82031,76.72851 c -2.0835,6e-5 -3.9604,0.23987 -5.65234,0.69141 a 29.410978,29.410978 0 0 0 -3.39844,-0.13477 29.410978,29.410978 0 0 0 -28.69727,30.08203 l 0.61328,68.5879 a 29.410978,29.410978 0 0 0 20.66993,28.17773 v 9.04102 2.60156 l 43.74804,-1.28711 43.77344,1.28711 v -2.60156 -10.31446 a 29.410978,29.410978 0 0 0 17.24414,-27.42969 l -0.61523,-68.58789 a 29.410978,29.410978 0 0 0 -27.69336,-29.49414 c -1.62548,-0.40722 -3.41983,-0.61909 -5.39844,-0.61914 z m 166.55078,0 c -2.08399,6e-5 -3.96009,0.23966 -5.65234,0.69141 a 29.410978,29.410978 0 0 0 -3.39844,-0.13477 29.410978,29.410978 0 0 0 -28.69727,30.08203 l 0.61329,68.5879 a 29.410978,29.410978 0 0 0 20.66992,28.17773 v 9.04102 2.60156 l 43.74805,-1.28711 43.77343,1.28711 v -2.60156 -10.31446 a 29.410978,29.410978 0 0 0 17.24414,-27.42969 l -0.61523,-68.58789 a 29.410978,29.410978 0 0 0 -27.69336,-29.49414 c -1.62548,-0.40722 -3.41983,-0.61909 -5.39844,-0.61914 z"
         id="path81" />
    </symbol>
    <symbol
       id="symbol27"
       viewBox="0 0 576.44501 577.45154">
      <title
         id="title24">Bank 2</title>
      <path
         d="M 64.571,0.06355556 C 23.236,0.06355556 0,21.434556 0,65.099556 V 515.22256 c 0,40.844 20.895,62.229 62.192,62.229 h 452.024 c 41.307,0 62.229,-20.315 62.229,-62.229 V 65.099556 c 0,-42.601 -20.922,-65.03600044 -63.521,-65.03600044 -0.004,0 -448.495,-0.143 -448.353,0 z"
         id="path25" />
      <path
         opacity="0.2"
         d="M 285.24006,37.843027 33.18062,229.75046 H 83.592176 V 537.61145 H 234.82819 339.10898 486.88797 V 229.75046 h 50.4119 L 285.24007,37.843027 Z"
         fill-rule="evenodd"
         fill="#ffffff"
         id="path26" />
      <path
         fill="#ffffff"
         d="m 285.23936,22.297509 a 10.001,10.001 0 0 0 -6.02344,2.140625 l -0.0332,-0.09766 L 27.12217,216.24868 a 10.001,10.001 0 0 0 6.058594,17.95508 h 40.412109 v 307.86133 a 10.001,10.001 0 0 0 10,10 H 234.82725 339.1085 486.8878 a 10.001,10.001 0 0 0 10,-10 V 234.20376 h 40.41211 a 10.001,10.001 0 0 0 6.05859,-17.95508 L 291.29795,24.340484 l -0.004,0.01367 a 10.001,10.001 0 0 0 -6.05469,-2.056641 z m 0.002,22.568359 222.41407,169.337892 h -20.76758 a 10.001,10.001 0 0 0 -10,10 V 532.06509 H 339.10855 234.8273 93.59292 V 224.20376 a 10.001,10.001 0 0 0 -10,-10 H 62.823389 L 285.24131,44.865868 Z m 0.13281,61.333992 a 23.084784,23.084784 0 0 0 -22.73437,23.4082 v 13.63867 c -29.67958,3.56586 -52.54516,12.8174 -68.04687,27.97852 -17.05252,16.67833 -25.62699,36.79216 -25.62696,59.95898 -3e-5,23.31001 8.68357,42.688 25.99219,57.63477 15.62839,13.49625 38.31783,23.30215 67.68164,29.69336 v 116.86132 c -12.28317,-2.68552 -22.38536,-8.12638 -30.41797,-16.6289 -10.23199,-10.83032 -17.19966,-26.49396 -20.65039,-47.08789 a 2.7170355,2.3007614 0 0 0 -3.16797,-1.94141 l -44.93554,6.76367 a 2.7170355,2.3007614 0 0 0 -2.23438,2.42969 c 2.36288,28.1556 12.81502,50.36937 31.49023,66.25586 16.83622,14.32219 40.2741,23.40836 69.91602,27.4668 v 19.28515 a 23.084784,23.084784 0 1 0 46.16406,0 v -19.8164 c 28.21673,-3.48394 54.32729,-13.04508 70.88672,-29.05274 19.21052,-18.57083 28.8845,-40.69693 28.88477,-65.99414 -2.7e-4,-24.70016 -8.82993,-44.98763 -26.48438,-60.37304 -15.94412,-13.89426 -43.16395,-23.54481 -73.28711,-29.50586 V 182.71939 c 9.2706,2.82591 17.94746,6.75684 22.8418,11.59179 8.08023,7.98312 13.49627,18.92676 16.10351,33 a 2.7170355,2.3007614 0 0 0 3.07422,1.92188 l 46.68555,-5.70703 a 2.7170355,2.3007614 0 0 0 2.29688,-2.625 c -4.22956,-23.49337 -14.72068,-42.01808 -31.54302,-55.24609 -14.06975,-11.06275 -36.09124,-18.07681 -59.45899,-21.56836 v -14.47852 a 23.084784,23.084784 0 0 0 -23.42969,-23.4082 z m -22.73437,74.53906 v 95.61328 c -11.95818,-4.05706 -21.70791,-9.17797 -29.12695,-15.4082 -9.42967,-7.91815 -14.17586,-18.6488 -14.17578,-32.71875 -8e-5,-12.18982 4.56172,-22.74626 13.83593,-32.02149 7.21717,-7.21766 17.0382,-12.32758 29.4668,-15.46484 z m 46.16406,149.49805 c 16.3073,5.08269 30.16619,10.85958 35.92969,16.6875 8.10127,8.19244 12.2205,19.03543 12.2207,32.8789 -2e-4,15.75434 -5.4209,28.52336 -16.27929,38.73242 -7.44212,6.99689 -19.4699,12.17931 -31.8711,15.41407 z"
         id="path27" />
    </symbol>
  </defs>
  <g
     inkscapeLabel="Layer 1"
     inkscapeGroupmode="layer"
     id="layer1">
    <use
       xlinkHref="#symbol27"
       width="576.44501"
       height="577.45154"
       style="fill:#0000ff;stroke:none"
       id="use1"
       transform="scale(0.03469542,0.02092833)" />
  </g>
</svg>
